HIERARCHY
ROOT root
{
	OFFSET	0	13.1	24.9
	CHANNELS 6  Xposition Yposition Zposition Xrotation Yrotation Zrotation
	JOINT spine_1
	{
		OFFSET	0	9.99999	0
		CHANNELS 3  Xrotation Yrotation Zrotation
		JOINT spine_2
		{
			OFFSET	0	112	-10
			CHANNELS 3  Xrotation Yrotation Zrotation
			JOINT spine_3
			{
				OFFSET	0	206.5	19.3
				CHANNELS 3  Xrotation Yrotation Zrotation
				JOINT spine_4
				{
					OFFSET	0	110.4	14.6
					CHANNELS 3  Xrotation Yrotation Zrotation
					JOINT neck_1
					{
						OFFSET	0	71.8	-50.3
						CHANNELS 3  Xrotation Yrotation Zrotation
						JOINT neck_2
						{
							OFFSET	0	86.2	-25.8
							CHANNELS 3  Xrotation Yrotation Zrotation
							JOINT head_ee
							{
								OFFSET	0	179.8	-8.7
								CHANNELS 3  Xrotation Yrotation Zrotation
								End Site
								{
									OFFSET	1	0	0
								}
							}
						}
					}
					JOINT left_clavicle
					{
						OFFSET	-43.2	22.4	-70.8
						CHANNELS 3  Xrotation Yrotation Zrotation
						JOINT left_shoulder
						{
							OFFSET	-93.9	-5.79999	48.7
							CHANNELS 3  Xrotation Yrotation Zrotation
							JOINT left_elbow
							{
								OFFSET	-291.4	-30.8	15.2
								CHANNELS 3  Xrotation Yrotation Zrotation
								JOINT left_lowarm_twist
								{
									OFFSET	-110.7	-3.89999	13.6
									CHANNELS 3  Xrotation Yrotation Zrotation
									JOINT left_hand
									{
										OFFSET	-110.7	-3.89999	13.6
										CHANNELS 3  Xrotation Yrotation Zrotation
										JOINT left_ee
										{
											OFFSET	-80.8	-5.10001	12.1
											CHANNELS 3  Xrotation Yrotation Zrotation
											End Site
											{
												OFFSET	1	0	0
											}
										}
									}
								}
							}
						}
					}
					JOINT right_clavicle
					{
						OFFSET	43.2	22.4	-70.8
						CHANNELS 3  Xrotation Yrotation Zrotation
						JOINT right_shoulder
						{
							OFFSET	93.9	-5.79999	48.7
							CHANNELS 3  Xrotation Yrotation Zrotation
							JOINT right_elbow
							{
								OFFSET	291.4	-30.8	15.2
								CHANNELS 3  Xrotation Yrotation Zrotation
								JOINT right_lowarm_twist
								{
									OFFSET	110.7	-3.89999	13.6
									CHANNELS 3  Xrotation Yrotation Zrotation
									JOINT right_hand
									{
										OFFSET	110.7	-3.89999	13.6
										CHANNELS 3  Xrotation Yrotation Zrotation
										JOINT right_ee
										{
											OFFSET	80.8	-5.10001	12.1
											CHANNELS 3  Xrotation Yrotation Zrotation
											End Site
											{
												OFFSET	1	0	0
											}
										}
									}
								}
							}
						}
					}
				}
			}
		}
	}
	JOINT left_hip
	{
		OFFSET	-82.8	-127.5	0.300001
		CHANNELS 3  Xrotation Yrotation Zrotation
		JOINT left_knee
		{
			OFFSET	-28.2	-396.7	2.2
			CHANNELS 3  Xrotation Yrotation Zrotation
			JOINT left_ankle
			{
				OFFSET	-11.7	-411.3	35.4
				CHANNELS 3  Xrotation Yrotation Zrotation
				JOINT left_toes
				{
					OFFSET	0	-60	-88.6
					CHANNELS 3  Xrotation Yrotation Zrotation
					JOINT left_foot_ee
					{
						OFFSET	-22.5	-16.5	-42.2
						CHANNELS 3  Xrotation Yrotation Zrotation
						End Site
						{
							OFFSET	1	0	0
						}
					}
				}
			}
		}
	}
	JOINT right_hip
	{
		OFFSET	82.8	-127.5	0.300001
		CHANNELS 3  Xrotation Yrotation Zrotation
		JOINT right_knee
		{
			OFFSET	28.2	-396.7	2.2
			CHANNELS 3  Xrotation Yrotation Zrotation
			JOINT right_ankle
			{
				OFFSET	11.7	-411.3	35.4
				CHANNELS 3  Xrotation Yrotation Zrotation
				JOINT right_toes
				{
					OFFSET	0	-60	-88.6
					CHANNELS 3  Xrotation Yrotation Zrotation
					JOINT right_foot_ee
					{
						OFFSET	22.5	-16.5	-42.2
						CHANNELS 3  Xrotation Yrotation Zrotation
						End Site
						{
							OFFSET	1	0	0
						}
					}
				}
			}
		}
	}
}
MOTION
Frames: 15
Frame Time: 0.02
3570.94844022 742.873 -1489.84622879 18.1632229908 84.6232004201 -19.4749725215 -0.305734 0.758358 -0.0506817 -0.306054 0.760046 -0.00231987 -0.306253 0.742706 0.161443 -0.305486 0.758882 0.042114 -4.27733 17.7045 -0.320273 -3.93342 32.7429 2.51903 -0.0 0.0 -0.0 2.30296 24.0534 5.89576 -18.9598 -22.3899 68.2814 1.28607 -32.499 0.374859 64.6506 -2.20499 -7.51979 -11.1475 32.1373 -55.7766 -0.0 0.0 -0.0 11.7057 -5.07234 -22.751 -0.0782185 21.5412 -66.5445 0.223184 6.30909 -0.0123003 32.2746 0.00953121 4.06883 3.64227 -30.6166 -33.2341 0.0 0.0 0.0 7.03725 8.30689 -1.91616 -24.1188 0.224052 3.66719 34.5163 22.3553 -4.54203 -21.9831 0.0 0.0 -0.0 0.0 -0.0 19.3422 -67.2125 24.3189 -5.62286 -0.190332 -0.841608 24.0628 -6.29702 3.22146 -19.4636 0.0 0.0 0.0 0.0 0.0 
3571.21261061 742.873 -1489.90447704 15.3531593018 83.6660056346 -16.6502749945 -0.305734 0.758358 -0.0506817 -0.306054 0.760046 -0.00231987 -0.306253 0.742706 0.161443 -0.305486 0.758882 0.042114 -4.27733 17.7045 -0.320273 -3.93342 32.7429 2.51903 -0.0 0.0 -0.0 2.30296 24.0534 5.89576 -18.9598 -22.3899 68.2814 1.28607 -32.499 0.374859 64.6506 -2.20499 -7.51979 -11.1475 32.1373 -55.7766 -0.0 0.0 -0.0 11.7057 -5.07234 -22.751 -0.0782185 21.5412 -66.5445 0.223184 6.30909 -0.0123003 32.2746 0.00953121 4.06883 3.64227 -30.6166 -33.2341 0.0 0.0 0.0 7.03725 8.30689 -1.91616 -24.1188 0.224052 3.66719 34.5163 22.3553 -4.54203 -21.9831 0.0 0.0 -0.0 0.0 -0.0 19.3422 -67.2125 24.3189 -5.62286 -0.190332 -0.841608 24.0628 -6.29702 3.22146 -19.4636 0.0 0.0 0.0 0.0 0.0 
3571.14987952 742.873 -1489.89108215 15.9395582085 83.8941920986 -17.2401450117 -0.305734 0.758358 -0.0506817 -0.306054 0.760046 -0.00231987 -0.306253 0.742706 0.161443 -0.305486 0.758882 0.042114 -4.27733 17.7045 -0.320273 -3.93342 32.7429 2.51903 -0.0 0.0 -0.0 2.30296 24.0534 5.89576 -18.9598 -22.3899 68.2814 1.28607 -32.499 0.374859 64.6506 -2.20499 -7.51979 -11.1475 32.1373 -55.7766 -0.0 0.0 -0.0 11.7057 -5.07234 -22.751 -0.0782185 21.5412 -66.5445 0.223184 6.30909 -0.0123003 32.2746 0.00953121 4.06883 3.64227 -30.6166 -33.2341 0.0 0.0 0.0 7.03725 8.30689 -1.91616 -24.1188 0.224052 3.66719 34.5163 22.3553 -4.54203 -21.9831 0.0 0.0 -0.0 0.0 -0.0 19.3422 -67.2125 24.3189 -5.62286 -0.190332 -0.841608 24.0628 -6.29702 3.22146 -19.4636 0.0 0.0 0.0 0.0 0.0 
3565.38420951 744.858 -1495.98604597 12.5240813217 85.6099300295 -13.6309841773 -0.237908 0.716734 -0.147455 -0.238188 0.724664 -0.101546 -0.239656 0.729592 0.0560856 -0.238917 0.729293 -0.05985 -3.60655 19.0414 0.474856 -3.13818 34.4824 3.33683 -0.0 0.0 -0.0 2.24904 24.3764 5.83607 -19.4147 -19.075 68.7101 1.17092 -30.1145 0.315012 64.0641 -2.1488 -7.46979 -10.7084 31.7527 -51.9697 -0.0 0.0 -0.0 11.6767 -4.39515 -22.7664 2.5387 23.6389 -68.3137 0.403824 11.3125 -0.0399957 31.375 -0.0218145 3.95822 3.31783 -30.6069 -31.1166 0.0 0.0 0.0 9.49559 11.1428 -4.13098 -24.3583 0.218501 3.70354 30.0245 19.254 -3.99431 -24.9959 0.0 0.0 -0.0 0.0 -0.0 17.735 -68.7707 21.6395 -3.98262 -0.143366 -0.594274 25.0329 -7.00937 3.33458 -20.3228 0.0 0.0 0.0 0.0 0.0 
3561.11692096 743.133 -1499.97618363 22.4258519286 88.2105506561 -23.2018023978 -0.105901 0.637879 -0.248818 -0.106103 0.652419 -0.207722 -0.108637 0.681629 -0.0646566 -0.10803 0.662862 -0.1715 -4.54647 19.5432 0.426901 -4.18338 35.6369 3.66407 -0.0 0.0 -0.0 1.90337 24.5596 5.37966 -19.8605 -15.9266 68.6338 1.16706 -30.0324 0.313077 63.1878 -2.0658 -7.39401 -10.5709 31.5822 -50.9569 -0.0 0.0 -0.0 11.6126 -3.67899 -22.7095 6.40183 23.3997 -69.6159 0.574204 15.8782 -0.0800776 31.735 -0.00947785 4.00254 3.52614 -30.891 -32.4971 0.0 0.0 0.0 13.4446 12.7247 -5.95003 -21.0775 0.281275 3.20407 24.699 24.9499 -3.46976 -25.9345 0.0 0.0 -0.0 0.0 -0.0 16.4301 -69.751 20.5206 -4.66495 -0.163764 -0.697003 26.623 -7.02893 3.51667 -20.0398 0.0 0.0 0.0 0.0 0.0 
3550.64461477 742.608 -1499.79142967 52.0023764858 89.1345781206 -52.2816576484 0.0447806 0.58371 -0.45317 0.0446868 0.611363 -0.415108 0.0400841 0.684766 -0.277798 0.0405347 0.6323 -0.382461 -5.63491 19.9078 0.251327 -5.42471 36.6562 3.9224 -0.0 0.0 -0.0 1.93877 23.8944 5.39315 -20.7128 -9.27942 69.6541 1.04004 -27.2571 0.252167 63.1812 -2.06518 -7.39343 -10.0143 31.0938 -46.7442 -0.0 0.0 -0.0 11.427 -2.88854 -22.4025 8.59123 24.6387 -71.1622 0.721615 19.6703 -0.125102 31.6129 -0.0136943 3.98752 3.09038 -30.3624 -29.6358 0.0 0.0 0.0 15.5006 13.2117 -6.92444 -20.0869 0.294596 3.05265 17.2542 21.0685 -2.45448 -29.6283 0.0 0.0 -0.0 0.0 -0.0 18.2318 -73.937 22.6881 -1.26144 -0.0498812 -0.187155 29.9175 -6.98913 3.87965 -21.1105 0.0 0.0 0.0 0.0 0.0 
3530.42179601 739.417 -1495.5851036 -174.989970588 86.4372841612 175.406286372 0.200154 0.255219 -0.456256 0.200225 0.283734 -0.439092 0.198017 0.36841 -0.370918 0.197955 0.305208 -0.424446 -3.71191 20.6173 -1.93308 -3.04707 39.2172 1.07035 -0.0 0.0 -0.0 1.61241 25.3159 5.03471 -23.8656 -7.58956 68.9903 1.18342 -30.379 0.321305 60.8101 -1.84658 -7.18215 -9.55586 29.8846 -44.7839 -0.0 0.0 -0.0 11.3248 -2.56565 -22.2198 10.0567 24.6576 -71.5683 0.908275 24.2242 -0.194922 32.0929 0.00306099 4.04653 3.70231 -30.4241 -33.6152 0.0 0.0 0.0 16.5564 16.4587 -7.81047 -16.5814 0.320676 2.51552 18.2154 15.8134 -2.5351 -29.9294 0.0 0.0 -0.0 0.0 -0.0 16.7148 -73.6283 22.4244 -3.10545 -0.115347 -0.462571 32.9527 -7.64909 4.19754 -20.5637 0.0 0.0 0.0 0.0 0.0 
3514.48663219 740.685 -1492.09134853 176.666968596 86.153820636 -176.642644775 0.287598 0.47205 -0.395544 0.287548 0.496263 -0.364705 0.284282 0.560577 -0.255027 0.284559 0.513265 -0.34036 -4.02526 20.0508 -1.60398 -3.47251 37.9852 1.45571 -0.0 0.0 -0.0 1.65619 25.2918 5.091 -26.1864 -5.49495 68.6263 1.12164 -29.0568 0.290678 59.8824 -1.76347 -7.09707 -9.10171 29.034 -42.3203 -0.0 0.0 -0.0 11.3968 -1.3991 -22.4684 11.3211 24.3025 -72.1975 1.02846 26.9968 -0.246887 32.4462 0.0157089 4.08988 3.84971 -29.0925 -34.4849 0.0 0.0 0.0 18.157 17.1325 -8.82493 -14.1942 0.319611 2.14927 16.1273 11.3189 -2.24468 -32.3313 0.0 0.0 -0.0 0.0 -0.0 14.3995 -75.1059 21.104 0.242059 0.0100429 0.0357882 34.917 -11.583 4.41437 -20.9214 0.0 0.0 0.0 0.0 0.0 
3500.78827415 738.107 -1492.7886447 177.845590045 84.0397344986 -177.478366155 0.352022 0.458157 -0.406139 0.351984 0.483072 -0.376162 0.348712 0.549718 -0.269567 0.34896 0.500246 -0.353003 -3.99135 20.6133 -0.792219 -3.43859 38.4122 2.37121 -0.0 0.0 -0.0 1.86057 24.6856 5.3289 -26.917 -2.74076 68.0212 1.09478 -28.4712 0.277754 57.2481 -1.53515 -6.84835 -8.62729 27.6752 -40.4054 -0.0 0.0 -0.0 11.2625 -0.640829 -22.2452 12.9588 25.0399 -73.7301 1.17108 30.1178 -0.31509 32.2205 0.00759602 4.06219 3.92502 -30.8298 -35.1501 0.0 0.0 0.0 19.5347 18.0652 -9.89606 -11.6129 0.301295 1.75367 16.6526 3.65717 -2.31237 -33.1551 0.0 0.0 -0.0 0.0 -0.0 7.58582 -76.3011 15.6293 3.39067 0.154405 0.49727 35.7677 -13.6132 4.51745 -21.3499 0.0 0.0 0.0 0.0 0.0 
3494.44982833 737.588 -1493.09234307 -174.151206868 86.0171518366 174.957855864 0.425565 0.66777 -0.280006 0.425348 0.684234 -0.236945 0.422369 0.718084 -0.0931244 0.42303 0.694365 -0.205369 -3.70125 20.4771 -0.866426 -3.10242 38.1584 2.16726 -0.0 0.0 -0.0 1.63637 24.8927 5.04144 -27.9694 -0.74553 68.4001 1.1062 -28.721 0.28322 58.3746 -1.63137 -6.95598 -8.59299 27.9195 -39.8266 -0.0 0.0 -0.0 11.7363 0.380342 -23.3245 14.5919 25.015 -75.3997 1.27345 32.2435 -0.368101 32.7395 0.0264131 4.12581 3.99222 -28.5302 -35.419 0.0 0.0 0.0 23.1761 17.9911 -11.6797 -10.1624 0.283188 1.53185 14.1042 3.47974 -1.97978 -35.2422 0.0 0.0 -0.0 0.0 -0.0 10.9237 -76.19 18.9692 2.94655 0.132505 0.432656 39.5781 -14.1127 4.88199 -21.1565 0.0 0.0 0.0 0.0 0.0 
3494.29357251 737.588 -1492.39803946 -174.798138589 85.5224977312 175.60654871 0.425565 0.66777 -0.280006 0.425348 0.684234 -0.236945 0.422369 0.718084 -0.0931244 0.42303 0.694365 -0.205369 -3.70125 20.4771 -0.866426 -3.10242 38.1584 2.16726 -0.0 0.0 -0.0 1.63637 24.8927 5.04144 -27.9694 -0.74553 68.4001 1.1062 -28.721 0.28322 58.3746 -1.63137 -6.95598 -8.59299 27.9195 -39.8266 -0.0 0.0 -0.0 11.7363 0.380342 -23.3245 14.5919 25.015 -75.3997 1.27345 32.2435 -0.368101 32.7395 0.0264131 4.12581 3.99222 -28.5302 -35.419 0.0 0.0 0.0 23.1761 17.9911 -11.6797 -10.1624 0.283188 1.53185 14.1042 3.47974 -1.97978 -35.2422 0.0 0.0 -0.0 0.0 -0.0 10.9237 -76.19 18.9692 2.94655 0.132505 0.432656 39.5781 -14.1127 4.88199 -21.1565 0.0 0.0 0.0 0.0 0.0 
3484.21649853 733.466 -1495.2513358 -171.816107811 84.3005896691 172.577236158 0.483289 0.698531 -0.0717352 0.483018 0.70168 -0.0271383 0.482588 0.692705 0.115112 0.483258 0.702191 0.00426256 -6.02581 20.7188 1.27834 -5.87939 37.5052 5.25342 -0.0 0.0 -0.0 1.25909 24.3973 4.50493 -28.689 0.779147 68.2986 1.13248 -29.2915 0.295965 57.9637 -1.59603 -6.91693 -8.43152 27.6433 -38.9418 -0.0 0.0 -0.0 11.8353 3.14685 -23.714 17.2391 25.7847 -76.7619 1.36444 34.0531 -0.41786 33.781 0.0659025 4.25293 3.84067 -26.6766 -34.1409 0.0 0.0 0.0 24.0619 18.664 -12.2149 -6.37267 0.209437 0.95509 14.609 -2.04592 -2.07025 -36.9212 0.0 0.0 -0.0 0.0 -0.0 7.66884 -79.476 14.17 4.87267 0.231102 0.711641 41.4065 -15.1877 5.05978 -21.0094 0.0 0.0 0.0 0.0 0.0 
3477.12861688 734.137 -1490.00346949 -174.265682802 83.8054349536 174.93695718 0.533202 0.600966 -0.0931302 0.533003 0.605674 -0.0546991 0.532348 0.604301 0.06821 0.532856 0.60749 -0.0280877 -7.68015 19.745 -0.188342 -7.81168 37.0225 4.19514 -0.0 0.0 -0.0 1.67338 24.8149 5.08615 -28.8875 2.02942 67.7668 1.03312 -27.1018 0.249008 57.6144 -1.56621 -6.88355 -7.83515 26.4278 -35.9435 -0.0 0.0 -0.0 11.7642 3.41755 -23.573 18.2762 25.5489 -77.7624 1.47604 36.1716 -0.482064 34.8589 0.109204 4.38373 4.18653 -26.306 -36.5735 0.0 0.0 0.0 23.5569 18.9114 -11.6387 -2.35065 0.0896234 0.349589 10.9276 -2.93354 -1.57587 -36.3411 0.0 0.0 -0.0 0.0 -0.0 6.77311 -80.6695 13.9601 6.79806 0.339004 0.987122 41.3285 -17.0001 5.08474 -20.409 0.0 0.0 0.0 0.0 0.0 
3456.38080494 727.628 -1485.73995134 -161.665604724 85.5945123143 163.104695449 0.339165 0.503669 0.0376326 0.339027 0.500253 0.0696069 0.339601 0.47547 0.170375 0.339905 0.49641 0.0931432 -11.041 19.7643 2.69554 -11.6816 35.6763 8.20989 -0.0 0.0 -0.0 2.16757 24.7066 5.74067 -30.4246 6.91834 69.5444 0.996073 -26.2624 0.23237 57.1539 -1.5272 -6.83925 -8.25216 27.2104 -38.1177 -0.0 0.0 -0.0 11.7188 6.20541 -23.5848 23.2104 26.4609 -80.0274 1.80009 41.7199 -0.685994 34.9815 0.114286 4.39856 4.35902 -26.0318 -37.8195 0.0 0.0 0.0 30.1133 17.2101 -14.3632 -2.35756 0.0898654 0.35062 6.16645 -9.68716 -0.932094 -36.4962 0.0 0.0 -0.0 0.0 -0.0 11.0785 -80.7138 18.5664 7.01257 0.351599 1.01759 41.8208 -18.2755 5.15375 -19.096 0.0 0.0 0.0 0.0 0.0 
3456.36311478 727.628 -1485.54861602 -162.037326701 85.5062652851 163.477541084 0.339165 0.503669 0.0376326 0.339027 0.500253 0.0696069 0.339601 0.47547 0.170375 0.339905 0.49641 0.0931432 -11.041 19.7643 2.69554 -11.6816 35.6763 8.20989 -0.0 0.0 -0.0 2.16757 24.7066 5.74067 -30.4246 6.91834 69.5444 0.996073 -26.2624 0.23237 57.1539 -1.5272 -6.83925 -8.25216 27.2104 -38.1177 -0.0 0.0 -0.0 11.7188 6.20541 -23.5848 23.2104 26.4609 -80.0274 1.80009 41.7199 -0.685994 34.9815 0.114286 4.39856 4.35902 -26.0318 -37.8195 0.0 0.0 0.0 30.1133 17.2101 -14.3632 -2.35756 0.0898654 0.35062 6.16645 -9.68716 -0.932094 -36.4962 0.0 0.0 -0.0 0.0 -0.0 11.0785 -80.7138 18.5664 7.01257 0.351599 1.01759 41.8208 -18.2755 5.15375 -19.096 0.0 0.0 0.0 0.0 0.0 
